<svg width="33" height="42" viewBox="0 0 33 42" fill="none" xmlns="http://www.w3.org/2000/svg">
<path d="M32.1686 14.6391C32.1686 12.5478 31.2049 10.6351 29.5247 9.39151C28.2624 8.45726 26.7599 8.01757 25.2456 8.11166C24.6925 3.54785 20.7949 0 16.0843 0C11.3736 0 7.47608 3.54785 6.92295 8.11166C5.40807 8.01732 3.90608 8.45726 2.64387 9.39151C0.963703 10.6352 0 12.5478 0 14.6391C0 16.7189 1.00398 18.6511 2.61762 19.8671C1.26763 21.4328 0.517945 23.4272 0.517945 25.5473C0.517945 30.3567 4.43067 34.2695 9.24 34.2695C11.3243 34.2695 13.2961 33.5387 14.8538 32.2243V40.7695C14.8538 41.4491 15.4047 42 16.0843 42C16.7638 42 17.3147 41.4491 17.3147 40.7695V32.2243C18.8724 33.5387 20.8443 34.2695 22.9286 34.2695C27.7379 34.2695 31.6506 30.3567 31.6506 25.5473C31.6506 23.4274 30.9009 21.4329 29.5509 19.8671C31.1646 18.6511 32.1686 16.7189 32.1686 14.6391ZM22.9286 31.8085C21.0101 31.8085 19.2235 30.9462 18.0269 29.4428C17.8454 29.2149 17.5919 29.0633 17.3147 29.0056V21.7511C17.3314 21.7361 17.3485 21.7221 17.3645 21.7061L20.8918 18.1788C21.3723 17.6982 21.3723 16.9192 20.8918 16.4387C20.4113 15.9581 19.6322 15.9581 19.1517 16.4387L17.3147 18.2755V10.0078C17.3147 9.32827 16.7638 8.77734 16.0843 8.77734C15.4047 8.77734 14.8538 9.32827 14.8538 10.0078V22.9513L11.8273 19.9248C11.3469 19.4443 10.5678 19.4443 10.0872 19.9248C9.60668 20.4054 9.60668 21.1844 10.0872 21.6649L14.5579 26.1356C14.6474 26.2251 14.7474 26.2979 14.8537 26.3541V29.0048C14.5766 29.0625 14.3231 29.2148 14.1416 29.4427C12.9449 30.9462 11.1584 31.8084 9.23992 31.8084C5.78755 31.8084 2.9788 28.9997 2.9788 25.5472C2.9788 23.5888 3.8704 21.7793 5.42506 20.5826C5.7791 20.31 5.9576 19.867 5.8914 19.4252C5.82512 18.9833 5.52456 18.612 5.10612 18.4553C3.5239 17.8627 2.46086 16.3291 2.46086 14.6391C2.46086 13.336 3.06116 12.1442 4.10796 11.3695C5.16075 10.5902 6.47965 10.3616 7.72669 10.7426C8.09977 10.8565 8.50467 10.7869 8.8182 10.5548C9.13172 10.3227 9.31662 9.9558 9.31662 9.56575V9.22852C9.31662 5.49683 12.3526 2.46094 16.0842 2.46094C19.8158 2.46094 22.8518 5.49683 22.8518 9.22852V9.56575C22.8518 9.9558 23.0368 10.3227 23.3502 10.5548C23.6637 10.7869 24.0685 10.8564 24.4417 10.7426C25.6887 10.3617 27.0077 10.5903 28.0604 11.3695C29.1072 12.1442 29.7075 13.336 29.7075 14.6391C29.7075 16.3292 28.6445 17.8628 27.0623 18.4553C26.6438 18.6121 26.3432 18.9833 26.277 19.4252C26.2108 19.8671 26.3892 20.3101 26.7433 20.5827C28.298 21.7795 29.1896 23.589 29.1896 25.5473C29.1897 28.9998 26.3809 31.8085 22.9286 31.8085Z" fill="#49FE9F"/>
</svg>
