<svg width="41" height="41" viewBox="0 0 41 41" fill="none" xmlns="http://www.w3.org/2000/svg">
<path d="M20.5071 0.5C12.5046 0.498834 5.27209 5.26992 2.12233 12.628L1.87305 12.7107L1.96969 13.0007C-2.17744 23.2312 2.75228 34.8872 12.9806 39.0352C15.3696 40.0041 17.9233 40.5014 20.5012 40.5C31.5445 40.5017 40.4983 31.5487 40.5 20.503C40.5017 9.45733 31.5505 0.501584 20.5071 0.5ZM36.1916 30.5837L35.1648 29.5573V27.1667C35.1659 27.0635 35.1431 26.9615 35.0981 26.8687L32.4987 21.676V19.1667C32.4987 18.9438 32.3874 18.7357 32.2021 18.612L30.2025 17.2787C30.0458 17.174 29.852 17.1406 29.6693 17.1867L27.2204 17.7987L23.1073 16.0333L22.5414 12.068L24.1097 10.5H27.4764L28.6095 12.2033C28.7118 12.3565 28.873 12.4606 29.0547 12.4907L33.0539 13.1573C33.161 13.1753 33.2708 13.1666 33.3738 13.132L37.057 11.904C40.1463 17.8336 39.8159 24.9653 36.1916 30.5837ZM33.4425 7.06933L32.3587 7.792L29.3373 7.18733L27.3771 6.53467C27.2571 6.49392 27.1279 6.48875 27.0051 6.52L24.527 7.13933L23.4406 6.77733L24.2457 5.16667H26.4999C26.6033 5.16675 26.7053 5.14283 26.7979 5.09667L29.104 3.94333C30.6922 4.7725 32.1532 5.82517 33.4425 7.06933ZM13.2007 3.322L14.8004 4.38867C14.879 4.441 14.9678 4.476 15.061 4.49133L18.291 5.03L17.9757 5.97333L16.2927 6.53533C16.142 6.5855 16.0141 6.68783 15.9321 6.824L14.0178 10.0147L10.9432 11.86L6.41077 12.5073C6.08225 12.5537 5.83797 12.8348 5.83755 13.1667V15.1667C5.83755 15.3435 5.90787 15.513 6.03285 15.638L7.17061 16.776V17.9213L4.39785 16.072L3.39206 13.054C5.30566 8.68067 8.81302 5.20067 13.2007 3.322ZM11.3031 25.18L8.29038 24.5767L7.17061 22.3427V20.776L9.65409 18.292L10.5732 20.1313C10.6861 20.3573 10.9172 20.5001 11.1698 20.5H15.4582L17.2638 23.51C17.3843 23.7106 17.6011 23.8332 17.8351 23.8333H19.688L19.2214 26.1713L16.698 28.6953C16.5727 28.8202 16.5022 28.9897 16.502 29.1667V30.8333L14.1025 32.6333C13.9347 32.7592 13.8359 32.9568 13.8359 33.1667V35.5747L13.0067 35.3L11.8363 32.372V25.8333C11.8364 25.5165 11.6134 25.2433 11.3031 25.18ZM9.2995 35.4284C3.01506 30.7127 0.357362 22.5647 2.65222 15.0493L3.2061 16.7107C3.25276 16.8512 3.34491 16.9723 3.46805 17.0547L6.79069 19.27L6.03285 20.0287C5.90787 20.1537 5.83755 20.3232 5.83755 20.5V22.5C5.83747 22.6034 5.86138 22.7054 5.90754 22.798L7.24059 25.4647C7.33291 25.6488 7.50512 25.78 7.70716 25.82L10.5066 26.3793V32.5C10.5065 32.5847 10.5226 32.6687 10.5539 32.7473L11.887 36.0807C11.9599 36.2627 12.1094 36.4035 12.2955 36.4653L14.2951 37.132C14.3619 37.1547 14.4319 37.1663 14.5024 37.1667C14.8705 37.1667 15.1689 36.8682 15.1689 36.5V33.5L17.5684 31.7C17.7362 31.5741 17.8351 31.3765 17.8351 31.1667V29.4427L20.3059 26.9713C20.3988 26.8782 20.4621 26.7597 20.4878 26.6307L21.1544 23.2973C21.2265 22.9363 20.9924 22.5851 20.6314 22.5129C20.5885 22.5043 20.5449 22.5 20.5012 22.5H18.2123L16.4067 19.49C16.2862 19.2894 16.0694 19.1667 15.8355 19.1667H11.5817L10.4366 16.8687C10.3407 16.6768 10.1584 16.5428 9.9467 16.5087C9.73507 16.4721 9.51904 16.5419 9.36882 16.6953L8.50366 17.5573V16.5C8.50366 16.3232 8.43335 16.1537 8.30837 16.0287L7.17061 14.8907V13.7447L11.2644 13.16C11.3523 13.1472 11.4369 13.1171 11.513 13.0713L14.8457 11.0713C14.9392 11.0152 15.0175 10.9368 15.0736 10.8433L16.9466 7.72133L18.7122 7.132C18.9116 7.06658 19.068 6.91017 19.1334 6.71067L19.8 4.71067C19.9155 4.36108 19.7257 3.984 19.3762 3.8685C19.344 3.85783 19.3109 3.84967 19.2774 3.844L15.4196 3.20067L14.7417 2.74867C18.9361 1.38317 23.479 1.55217 27.5604 3.22533L26.3426 3.83333H23.8338C23.5799 3.83192 23.3474 3.97492 23.2339 4.202L21.9009 6.86867C21.7367 7.19817 21.8705 7.5985 22.2 7.76275C22.2281 7.77675 22.257 7.78875 22.2868 7.79867L24.2864 8.46533C24.4064 8.50608 24.5355 8.51125 24.6583 8.48L27.1364 7.86067L28.9521 8.46533C28.9781 8.47467 29.0048 8.48183 29.0321 8.48667L32.3647 9.15333C32.538 9.18867 32.7183 9.15317 32.8653 9.05467L34.3823 8.04267C35.1289 8.87442 35.7998 9.77108 36.3872 10.722L33.1079 11.8153L29.5573 11.2233L28.3842 9.46333C28.2612 9.27892 28.0546 9.16775 27.833 9.16667H23.8338C23.657 9.16667 23.4875 9.237 23.3626 9.362L21.363 11.362C21.2145 11.5104 21.1446 11.7202 21.1744 11.928L21.8409 16.5947C21.8745 16.8254 22.0261 17.0218 22.2408 17.1127L26.9065 19.1127C27.0401 19.1706 27.1893 19.1825 27.3304 19.1467L29.7106 18.5513L31.1656 19.5233V21.8333C31.1644 21.9365 31.1873 22.0385 31.2323 22.1313L33.8317 27.324V29.8333C33.8317 30.0102 33.902 30.1797 34.027 30.3047L35.4214 31.7C29.2374 39.9444 17.5422 41.6138 9.2995 35.4284Z" fill="#49FE9F" stroke="#49FE9F"/>
</svg>
