<svg width="21" height="35" viewBox="0 0 21 35" fill="none" xmlns="http://www.w3.org/2000/svg">
<path d="M17.5 11.375H21C21 6.41025 16.1787 4.14575 12.25 3.62425V0H8.74996V3.62425C4.82125 4.14575 0 6.41025 0 11.375C0 16.1105 4.6655 18.5728 8.74996 19.1275V27.825C6.216 27.3857 3.5 26.033 3.5 23.625H0C0 28.1558 4.24375 30.8333 8.74996 31.388V35H12.25V31.3775C16.1787 30.856 21 28.5898 21 23.625C21 18.6602 16.1787 16.3958 12.25 15.8743V7.175C14.5775 7.59325 17.5 8.82175 17.5 11.375ZM3.5 11.375C3.5 8.82175 6.4225 7.59325 8.74996 7.175V15.5732C6.35075 15.1305 3.5 13.8197 3.5 11.375ZM17.5 23.625C17.5 26.1782 14.5775 27.4067 12.25 27.825V19.425C14.5775 19.8433 17.5 21.0718 17.5 23.625Z" fill="#49FE9F"/>
</svg>
