<svg width="176" height="46" viewBox="0 0 176 46" fill="none" xmlns="http://www.w3.org/2000/svg">
<path d="M19.6411 40.7497L19.5173 37.3419L18.3555 35.6123V24.0001H16.2443V35.6123L15.0766 37.3419L14.9587 40.7497L13.7852 43.0001L16.1087 42.6786L18.3319 42.6979L20.7852 42.9551L19.6411 40.7497Z" fill="url(#paint0_linear_7001_870)"/>
<path d="M19.0986 20.6255L22.9699 18.1683" stroke="url(#paint1_linear_7001_870)" stroke-width="0.4" stroke-miterlimit="10"/>
<path d="M22.0713 18.0488L23.699 12.1288L27.2183 9.89782L34.8099 10.6582L32.2647 17.854L28.7454 20.0849L22.6934 19.0354L22.0713 18.0488Z" fill="url(#paint2_linear_7001_870)"/>
<path d="M26.382 16.2082L32.2831 12.029L26.0615 15.7934L27.0042 11.6897L25.2948 16.1705L23.0952 18.1061L25.7158 16.7235L29.9139 17.4651L26.382 16.2082Z" fill="black"/>
<path d="M15.7176 20.6255L11.8401 18.1683" stroke="url(#paint3_linear_7001_870)" stroke-width="0.4" stroke-miterlimit="10"/>
<path d="M12.7449 18.0489L11.1172 12.1289L7.59162 9.89795L0 10.6584L2.5452 17.8541L6.07079 20.0851L12.1164 19.0356L12.7449 18.0489Z" fill="url(#paint4_linear_7001_870)"/>
<path d="M7.64816 15.2149L1.50195 11.7585L7.25225 15.8434L3.69524 17.2385L7.91211 16.3336L11.2052 17.7915L8.4023 15.7114L7.45334 11.1991L7.64816 15.2149Z" fill="black"/>
<path d="M5 45.4375C12.0278 41.4375 22.9792 41.4375 30 45.4375C26.3715 43.5859 21.9358 43.2188 17.5 43.2188C13.0642 43.2188 8.62847 43.5859 5 45.4375Z" fill="url(#paint5_linear_7001_870)"/>
<path d="M16.0758 22.3103L12.3743 24.7926" stroke="url(#paint6_linear_7001_870)" stroke-width="0.4" stroke-miterlimit="10"/>
<path d="M4.93934 24.3966L8.15698 22.2976L11.9717 22.9072L13.8884 25.8358L12.9081 29.575L9.69039 31.674L2.67065 31.0707L4.93934 24.3966Z" fill="url(#paint7_linear_7001_870)"/>
<path d="M8.82429 26.5836L4.02295 30.2789L9.11337 27.1115L9.47159 30.4674L9.72923 26.835L12.0294 24.9057L9.47786 26.2317L5.86429 25.1256L8.82429 26.5836Z" fill="black"/>
<path d="M18.7402 22.3098L22.4418 24.7921" stroke="url(#paint8_linear_7001_870)" stroke-width="0.4" stroke-miterlimit="10"/>
<path d="M29.871 24.3967L26.6534 22.2977L22.8387 22.9073L20.9282 25.8359L21.9023 29.5751L25.12 31.6741L32.1397 31.0708L29.871 24.3967Z" fill="url(#paint9_linear_7001_870)"/>
<path d="M25.6786 26.3632L30.48 30.0584L25.3896 26.8973L25.1193 30.2092L24.7737 26.6208L22.4673 24.9743L25.0251 26.0175L28.6386 24.9114L25.6786 26.3632Z" fill="black"/>
<path d="M17.4087 18.6085V14.0271" stroke="url(#paint10_linear_7001_870)" stroke-width="0.4" stroke-miterlimit="10"/>
<path d="M17.9926 14.7183L22.1152 10.1747V6.00807L17.4082 0.00012207L12.6948 6.00807V10.1747L16.8237 14.7183H17.9926Z" fill="url(#paint11_linear_7001_870)"/>
<path d="M17.6969 9.54007L17.3576 2.50147L17.0622 9.53378L13.9263 7.14569L17.0559 10.3193L17.4078 13.625L17.7472 10.3822L21.0151 7.04513L17.6969 9.54007Z" fill="black"/>
<path d="M21.7271 21.5461L17.4033 17.2223L13.0795 21.5461L17.4033 25.8699L21.7271 21.5461Z" fill="url(#paint12_linear_7001_870)"/>
<path d="M17.4534 21.7813L19.7852 21.4245L17.4761 21.1525L17.1968 19.0001L16.8832 21.1646L14.7852 21.4245L16.8718 21.7692L17.2139 24.0001L17.4534 21.7813Z" fill="black"/>
<path d="M65.2562 13.1183V17.5805H64.9181C64.8505 16.972 64.7153 16.4987 64.5125 16.0255C64.3096 15.6198 64.1068 15.2818 63.8364 15.0113C63.5659 14.7409 63.2279 14.5381 62.8222 14.4705C62.4166 14.4028 61.9433 14.2676 61.4024 14.2676H58.698V28.8713C58.698 30.0206 58.8333 30.7643 59.1037 31.1024C59.4417 31.5081 59.9826 31.7109 60.7263 31.7109H61.4024V32.2518H53.2893V31.7109H53.9654C54.7767 31.7109 55.3176 31.4405 55.6556 30.9672C55.8584 30.6967 55.9937 30.0206 55.9937 28.9389V14.3352H53.6949C53.0864 14.3352 52.6132 14.3352 52.1399 14.4705C51.7343 14.5381 51.3286 14.7409 51.0582 14.9437C50.7877 15.1465 50.5173 15.4846 50.3145 15.9579C50.1116 16.3635 49.9764 16.972 49.9088 17.6481H49.3679V13.1859H65.1885L65.2562 13.1183Z" fill="url(#paint13_linear_7001_870)"/>
<path d="M73.3016 22.0428H82.1584V16.5664C82.1584 16.0931 82.1584 15.7551 82.1584 15.4847C82.1584 15.2142 82.1584 14.9438 82.0232 14.8086C82.0232 14.6057 81.888 14.4705 81.7528 14.4029C81.6852 14.2677 81.4823 14.2001 81.3471 14.1325C80.9414 13.9296 80.5358 13.7944 80.0625 13.7944H79.3864V13.2535H87.5672V13.7944H86.8911C86.8911 13.7944 86.553 13.7944 86.3502 13.7944C86.1474 13.7944 85.9445 13.862 85.8093 13.9973C85.6741 14.1325 85.4713 14.2001 85.3361 14.3353C85.2008 14.4705 85.0656 14.6057 85.0656 14.8086C84.998 15.1466 84.9304 15.7551 84.9304 16.7016V29.0742C84.9304 29.5474 84.9304 29.8855 84.9304 30.1559C84.9304 30.4264 84.9304 30.6968 85.0656 30.832C85.0656 31.0349 85.2008 31.1701 85.2685 31.2377C85.3361 31.3729 85.5389 31.4405 85.6741 31.5081C86.0798 31.711 86.4854 31.8462 86.9587 31.8462H87.6348V32.387H79.454V31.8462H80.1301C80.8738 31.8462 81.4823 31.6433 81.8204 31.1701C82.0908 30.8996 82.1584 30.1559 82.1584 29.0066V23.1921H73.3016V29.0066C73.3016 29.4798 73.3016 29.8179 73.3016 30.0883C73.3016 30.3588 73.3016 30.6292 73.4368 30.7644C73.4368 30.9672 73.572 31.1025 73.6396 31.1701C73.7072 31.3053 73.9101 31.3729 74.0453 31.4405C74.4509 31.6433 74.8566 31.7786 75.3299 31.7786H76.0059V32.3194H67.8252V31.7786H68.5013C69.3126 31.7786 69.8535 31.5757 70.1915 31.1025C70.3944 30.832 70.5296 30.0883 70.5296 28.939V16.5664C70.5296 16.0931 70.5296 15.7551 70.5296 15.4847C70.5296 15.2142 70.5296 14.9438 70.3944 14.8086C70.3944 14.6057 70.2591 14.4705 70.1915 14.4029C70.1239 14.3353 69.9211 14.2001 69.7859 14.1325C69.3802 13.9296 68.9746 13.7944 68.5013 13.7944H67.8252V13.2535H76.0059V13.7944H75.3299C75.3299 13.7944 74.9242 13.7944 74.789 13.7944C74.5861 13.7944 74.3833 13.862 74.2481 13.9973C74.0453 14.0649 73.9101 14.2001 73.7748 14.3353C73.6396 14.4705 73.5044 14.6057 73.5044 14.8086C73.3692 15.079 73.3016 15.7551 73.3016 16.7016V22.178V22.0428Z" fill="url(#paint14_linear_7001_870)"/>
<path d="M95.41 14.2V21.7723H99.6018C100.21 21.7723 100.684 21.7723 101.089 21.6371C101.495 21.5019 101.765 21.3667 101.968 21.0962C102.171 20.8934 102.306 20.5553 102.441 20.2173C102.509 19.8793 102.577 19.4736 102.644 19.0003H103.185V25.6261H102.644C102.644 25.1528 102.509 24.7471 102.441 24.4767C102.374 24.2063 102.306 23.9358 102.239 23.8006C102.171 23.6654 102.036 23.4626 101.901 23.3273C101.765 23.1921 101.63 23.0569 101.36 22.9893C101.157 22.9217 100.886 22.8541 100.616 22.7865C100.345 22.7865 100.007 22.7188 99.6018 22.7188H95.41V29.0065C95.41 29.8178 95.41 30.3587 95.5452 30.5616C95.5452 30.6292 95.6128 30.6968 95.6804 30.832C95.6804 30.8996 95.8156 30.9672 95.9509 31.0348C96.0861 31.0348 96.2213 31.1024 96.3565 31.17C96.5593 31.17 96.7622 31.17 97.0326 31.17H100.278C100.819 31.17 101.292 31.17 101.698 31.17C102.103 31.17 102.374 31.1024 102.644 31.0348C102.915 30.9672 103.185 30.832 103.388 30.6968C103.591 30.5616 103.794 30.3587 104.064 30.1559C104.334 29.8855 104.672 29.4798 104.943 29.0741C105.213 28.6685 105.551 28.1276 105.822 27.5191H106.363L104.74 32.3194H90.0012V31.7785H90.6773C90.6773 31.7785 91.0154 31.7785 91.2182 31.7785C91.421 31.7785 91.6239 31.7109 91.7591 31.5757C91.9619 31.5081 92.0971 31.3729 92.2323 31.2376C92.3676 31.1024 92.5028 30.9672 92.5028 30.7644C92.638 30.4939 92.7056 29.8855 92.7056 28.9389V16.4988C92.7056 15.2818 92.5704 14.5381 92.3676 14.2677C92.0295 13.862 91.4886 13.7268 90.6773 13.7268H90.0012V13.1859H104.74V17.3777H104.402C104.334 16.8368 104.199 16.4312 104.064 16.0931C103.996 15.7551 103.861 15.4846 103.726 15.2818C103.591 15.079 103.456 14.8761 103.253 14.7409C103.05 14.6057 102.847 14.4705 102.644 14.4029C102.239 14.2677 101.562 14.2 100.684 14.2H95.41Z" fill="url(#paint15_linear_7001_870)"/>
<path d="M136.043 32.2516H130.972L124.482 23.3271C124.482 23.3271 124.009 23.3271 123.806 23.3271C123.603 23.3271 123.468 23.3271 123.265 23.3271C123.13 23.3271 122.995 23.3271 122.859 23.3271C122.724 23.3271 122.589 23.3271 122.454 23.3271V28.8711C122.454 30.0881 122.589 30.8318 122.859 31.1022C123.197 31.5079 123.738 31.7107 124.482 31.7107H125.226V32.2516H117.045V31.7107H117.789C118.6 31.7107 119.141 31.4403 119.546 30.8994C119.749 30.629 119.817 29.8852 119.817 28.8035V16.4309C119.817 15.214 119.682 14.4703 119.411 14.1998C119.073 13.7942 118.532 13.5913 117.789 13.5913H117.045V13.0505H124.009C126.037 13.0505 127.524 13.1857 128.471 13.5237C128.944 13.659 129.417 13.8618 129.823 14.1322C130.229 14.4027 130.634 14.7407 130.905 15.1464C131.243 15.552 131.446 15.9577 131.649 16.4309C131.851 16.9042 131.919 17.4451 131.919 17.986C131.919 18.5945 131.851 19.1353 131.649 19.6762C131.446 20.2171 131.175 20.6904 130.77 21.096C130.364 21.5017 129.891 21.9073 129.282 22.1778C128.674 22.5158 127.998 22.7186 127.186 22.9215L131.108 28.3978C131.987 29.6824 132.798 30.4937 133.406 30.8994C134.083 31.3051 134.894 31.5755 135.976 31.7107V32.2516H136.043ZM122.454 22.4482C122.454 22.4482 122.792 22.4482 122.927 22.4482C123.062 22.4482 123.197 22.4482 123.265 22.4482C124.144 22.4482 124.955 22.313 125.699 22.1102C126.443 21.9073 126.984 21.6369 127.457 21.2312C127.93 20.8256 128.268 20.4199 128.471 19.879C128.674 19.3382 128.809 18.7973 128.809 18.1888C128.809 17.5803 128.741 17.0394 128.539 16.5662C128.336 16.0929 128.065 15.6196 127.727 15.2816C127.389 14.9435 126.916 14.6731 126.443 14.4703C125.902 14.2675 125.361 14.1998 124.752 14.1998C124.482 14.1998 124.144 14.1998 123.806 14.1998C123.468 14.1998 122.995 14.3351 122.521 14.4027V22.3806L122.454 22.4482Z" fill="url(#paint16_linear_7001_870)"/>
<path d="M143.007 14.2V21.7723H147.199C147.807 21.7723 148.281 21.7723 148.686 21.6371C149.092 21.5019 149.362 21.3667 149.565 21.0962C149.768 20.8934 149.903 20.5553 150.039 20.2173C150.106 19.8793 150.174 19.4736 150.241 19.0003H150.782V25.6261H150.241C150.241 25.1528 150.106 24.7471 150.039 24.4767C149.971 24.2063 149.903 23.9358 149.836 23.8006C149.768 23.6654 149.633 23.4626 149.498 23.3273C149.362 23.1921 149.227 23.0569 148.957 22.9893C148.754 22.9217 148.484 22.8541 148.213 22.7865C147.943 22.7865 147.605 22.7188 147.199 22.7188H143.007V29.0065C143.007 29.8178 143.007 30.3587 143.142 30.5616C143.142 30.6292 143.21 30.6968 143.278 30.832C143.278 30.8996 143.413 30.9672 143.548 31.0348C143.683 31.0348 143.818 31.1024 143.954 31.17C144.157 31.17 144.359 31.17 144.63 31.17H147.875C148.416 31.17 148.889 31.17 149.295 31.17C149.7 31.17 149.971 31.1024 150.241 31.0348C150.512 30.9672 150.782 30.832 150.985 30.6968C151.188 30.5616 151.391 30.3587 151.661 30.1559C151.932 29.8855 152.27 29.4798 152.54 29.0741C152.811 28.6685 153.149 28.1276 153.419 27.5191H153.96L152.337 32.3194H137.598V31.7785H138.274C138.274 31.7785 138.613 31.7785 138.815 31.7785C139.018 31.7785 139.221 31.7109 139.356 31.5757C139.559 31.5081 139.694 31.3729 139.83 31.2376C139.965 31.1024 140.1 30.9672 140.1 30.7644C140.235 30.4939 140.303 29.8855 140.303 28.9389V16.4988C140.303 15.2818 140.168 14.5381 139.965 14.2677C139.627 13.862 139.086 13.7268 138.274 13.7268H137.598V13.1859H152.337V17.3777H151.999C151.932 16.8368 151.796 16.4312 151.661 16.0931C151.594 15.7551 151.458 15.4846 151.323 15.2818C151.188 15.079 151.053 14.8761 150.85 14.7409C150.647 14.6057 150.444 14.4705 150.241 14.4029C149.836 14.2677 149.16 14.2 148.281 14.2H143.007Z" fill="url(#paint17_linear_7001_870)"/>
<path d="M156.259 32.2518V31.7109H157.002C157.814 31.7109 158.354 31.4405 158.692 30.9672C158.895 30.6967 159.031 29.953 159.031 28.8713V16.4987C159.031 15.2818 158.895 14.5381 158.625 14.2676C158.287 13.862 157.746 13.6591 157.002 13.6591H156.259V13.1183H164.034C166.873 13.1183 169.037 13.4563 170.524 14.0648C172.012 14.7409 173.229 15.8226 174.107 17.3101C174.986 18.7975 175.46 20.5553 175.46 22.5836C175.46 24.0034 175.257 25.288 174.784 26.505C174.31 27.7219 173.634 28.7361 172.755 29.5474C171.876 30.4263 170.727 31.0348 169.375 31.5081C168.023 31.9813 166.468 32.2518 164.71 32.2518H156.191H156.259ZM161.667 30.8996C162.817 31.17 163.831 31.3052 164.642 31.3052C165.724 31.3052 166.738 31.1024 167.685 30.6967C168.631 30.2911 169.442 29.7502 170.118 29.0065C170.795 28.2628 171.335 27.3839 171.741 26.3021C172.147 25.2204 172.282 24.071 172.282 22.7864C172.282 21.5018 172.079 20.2849 171.741 19.2031C171.403 18.1214 170.862 17.2424 170.118 16.4987C169.442 15.755 168.631 15.2142 167.685 14.8085C166.738 14.4028 165.724 14.2 164.574 14.2C164.169 14.2 163.696 14.2 163.222 14.3352C162.749 14.4028 162.208 14.5381 161.667 14.6057V30.832V30.8996Z" fill="url(#paint18_linear_7001_870)"/>
<defs>
<linearGradient id="paint0_linear_7001_870" x1="13.7852" y1="33.5001" x2="20.7852" y2="33.5001" gradientUnits="userSpaceOnUse">
<stop stop-color="#B6852C"/>
<stop offset="1" stop-color="#D7B557"/>
</linearGradient>
<linearGradient id="paint1_linear_7001_870" x1="19.0986" y1="19.3969" x2="22.9699" y2="19.3969" gradientUnits="userSpaceOnUse">
<stop stop-color="#B6852C"/>
<stop offset="1" stop-color="#D7B557"/>
</linearGradient>
<linearGradient id="paint2_linear_7001_870" x1="22.0713" y1="14.9914" x2="34.8099" y2="14.9914" gradientUnits="userSpaceOnUse">
<stop stop-color="#B6852C"/>
<stop offset="1" stop-color="#D7B557"/>
</linearGradient>
<linearGradient id="paint3_linear_7001_870" x1="11.8401" y1="19.3969" x2="15.7176" y2="19.3969" gradientUnits="userSpaceOnUse">
<stop stop-color="#B6852C"/>
<stop offset="1" stop-color="#D7B557"/>
</linearGradient>
<linearGradient id="paint4_linear_7001_870" x1="0" y1="14.9915" x2="12.7449" y2="14.9915" gradientUnits="userSpaceOnUse">
<stop stop-color="#B6852C"/>
<stop offset="1" stop-color="#D7B557"/>
</linearGradient>
<linearGradient id="paint5_linear_7001_870" x1="5" y1="43.9375" x2="30" y2="43.9375" gradientUnits="userSpaceOnUse">
<stop stop-color="#B6852C"/>
<stop offset="1" stop-color="#D7B557"/>
</linearGradient>
<linearGradient id="paint6_linear_7001_870" x1="12.3743" y1="23.5514" x2="16.0758" y2="23.5514" gradientUnits="userSpaceOnUse">
<stop stop-color="#B6852C"/>
<stop offset="1" stop-color="#D7B557"/>
</linearGradient>
<linearGradient id="paint7_linear_7001_870" x1="2.67065" y1="26.9858" x2="13.8884" y2="26.9858" gradientUnits="userSpaceOnUse">
<stop stop-color="#B6852C"/>
<stop offset="1" stop-color="#D7B557"/>
</linearGradient>
<linearGradient id="paint8_linear_7001_870" x1="18.7402" y1="23.551" x2="22.4418" y2="23.551" gradientUnits="userSpaceOnUse">
<stop stop-color="#B6852C"/>
<stop offset="1" stop-color="#D7B557"/>
</linearGradient>
<linearGradient id="paint9_linear_7001_870" x1="20.9282" y1="26.9859" x2="32.1397" y2="26.9859" gradientUnits="userSpaceOnUse">
<stop stop-color="#B6852C"/>
<stop offset="1" stop-color="#D7B557"/>
</linearGradient>
<linearGradient id="paint10_linear_7001_870" x1="17.4087" y1="16.3178" x2="18.4087" y2="16.3178" gradientUnits="userSpaceOnUse">
<stop stop-color="#B6852C"/>
<stop offset="1" stop-color="#D7B557"/>
</linearGradient>
<linearGradient id="paint11_linear_7001_870" x1="12.6948" y1="7.35923" x2="22.1152" y2="7.35923" gradientUnits="userSpaceOnUse">
<stop stop-color="#B6852C"/>
<stop offset="1" stop-color="#D7B557"/>
</linearGradient>
<linearGradient id="paint12_linear_7001_870" x1="15.2414" y1="19.3842" x2="19.5652" y2="23.708" gradientUnits="userSpaceOnUse">
<stop stop-color="#B6852C"/>
<stop offset="1" stop-color="#D7B557"/>
</linearGradient>
<linearGradient id="paint13_linear_7001_870" x1="49.3679" y1="22.685" x2="65.2562" y2="22.685" gradientUnits="userSpaceOnUse">
<stop stop-color="#B6852C"/>
<stop offset="1" stop-color="#D7B557"/>
</linearGradient>
<linearGradient id="paint14_linear_7001_870" x1="67.8252" y1="22.8203" x2="87.6348" y2="22.8203" gradientUnits="userSpaceOnUse">
<stop stop-color="#B6852C"/>
<stop offset="1" stop-color="#D7B557"/>
</linearGradient>
<linearGradient id="paint15_linear_7001_870" x1="90.0012" y1="22.7527" x2="106.363" y2="22.7527" gradientUnits="userSpaceOnUse">
<stop stop-color="#B6852C"/>
<stop offset="1" stop-color="#D7B557"/>
</linearGradient>
<linearGradient id="paint16_linear_7001_870" x1="117.045" y1="22.651" x2="136.043" y2="22.651" gradientUnits="userSpaceOnUse">
<stop stop-color="#B6852C"/>
<stop offset="1" stop-color="#D7B557"/>
</linearGradient>
<linearGradient id="paint17_linear_7001_870" x1="137.598" y1="22.7527" x2="153.96" y2="22.7527" gradientUnits="userSpaceOnUse">
<stop stop-color="#B6852C"/>
<stop offset="1" stop-color="#D7B557"/>
</linearGradient>
<linearGradient id="paint18_linear_7001_870" x1="156.191" y1="22.685" x2="175.46" y2="22.685" gradientUnits="userSpaceOnUse">
<stop stop-color="#B6852C"/>
<stop offset="1" stop-color="#D7B557"/>
</linearGradient>
</defs>
</svg>
